<?xml version="1.0" standalone="no"?>
<!DOCTYPE svg PUBLIC "-//W3C//DTD SVG 20010904//EN"
 "http://www.w3.org/TR/2001/REC-SVG-20010904/DTD/svg10.dtd">
<svg version="1.0" xmlns="http://www.w3.org/2000/svg"
 width="397.000000pt" height="445.000000pt" viewBox="0 0 397.000000 445.000000"
 preserveAspectRatio="xMidYMid meet">
<metadata>
Created by potrace 1.15, written by Peter Selinger 2001-2017
</metadata>
<g transform="translate(0.000000,445.000000) scale(0.100000,-0.100000)"
fill="#ffffff" stroke="none">
<path d="M1940 4254 c-68 -12 -150 -37 -161 -50 -6 -8 -12 -50 -13 -94 l-1
-80 -115 -41 c-63 -22 -161 -55 -217 -72 l-103 -32 0 -100 c-1 -169 -10 -477
-16 -542 -4 -44 -10 -63 -19 -63 -8 0 -17 -9 -20 -20 -4 -12 -15 -20 -27 -20
-28 0 -78 -39 -110 -86 -16 -24 -41 -91 -62 -170 -20 -72 -48 -162 -62 -200
-14 -38 -35 -93 -46 -121 -19 -51 -21 -53 -58 -53 -30 0 -40 5 -45 20 -3 11
-20 29 -36 41 -25 17 -40 20 -80 17 -43 -5 -57 -12 -97 -51 -43 -41 -52 -45
-110 -51 -34 -3 -74 -1 -88 4 -47 18 -80 -11 -114 -102 -28 -77 -31 -265 -5
-353 34 -118 100 -207 175 -237 134 -52 287 -11 401 109 67 70 91 115 120 219
17 61 20 92 15 153 -4 42 -7 87 -8 101 0 14 35 113 79 220 44 107 88 220 97
250 10 30 22 67 28 82 l10 27 34 -38 35 -38 -1 -585 0 -584 24 -23 24 -23 -44
-47 c-25 -26 -87 -81 -139 -122 -134 -106 -163 -166 -190 -389 -8 -63 -20
-158 -27 -210 -18 -138 -15 -226 9 -281 l21 -46 -40 -23 c-22 -12 -54 -35 -72
-50 -17 -16 -54 -35 -81 -43 -28 -9 -45 -16 -40 -17 6 0 27 -3 47 -6 28 -4 47
0 70 14 34 21 100 42 151 48 15 2 35 8 45 13 20 10 69 18 162 27 68 7 92 7
174 3 32 -2 51 1 54 9 5 15 32 16 32 1 0 -8 6 -7 17 2 11 10 14 10 9 1 -4 -6
-2 -12 3 -12 6 0 11 3 11 8 0 4 17 8 37 9 20 1 39 7 43 13 9 14 21 15 29 2 8
-13 67 -42 84 -42 8 0 22 9 32 21 11 11 30 19 45 18 47 -3 81 1 77 9 -3 4 8 7
24 7 20 1 28 -3 25 -12 -6 -14 -3 -14 99 -19 33 -1 81 -6 108 -9 30 -5 47 -3
47 3 0 6 20 10 44 9 33 -1 46 -7 49 -19 6 -21 93 -65 144 -74 48 -7 79 20 69
61 -7 26 -2 29 42 25 13 -1 34 6 47 14 29 19 35 20 35 5 0 -5 -4 -7 -10 -4 -6
3 -7 -1 -4 -10 5 -11 10 -13 18 -5 9 7 19 5 32 -5 21 -16 84 -20 84 -6 0 5 29
8 64 8 39 0 71 5 80 12 9 8 16 10 16 6 0 -4 6 -2 14 4 7 6 24 11 37 10 47 -1
215 30 294 55 88 28 120 33 109 14 -5 -8 0 -9 17 -5 13 4 33 7 44 8 30 1 -33
28 -68 29 -15 0 -36 5 -47 12 -15 10 -29 10 -67 -1 -26 -7 -59 -15 -73 -17
-22 -4 -23 -3 -5 5 12 6 14 10 6 10 -11 1 -11 5 2 19 20 22 22 42 5 42 -6 0
-3 9 7 20 22 25 9 26 -19 2 -11 -9 -3 7 17 36 28 40 33 50 17 42 -11 -6 -20
-7 -20 -2 0 5 -7 9 -15 9 -8 0 -11 -5 -8 -10 4 -6 0 -8 -10 -4 -9 3 -18 1 -21
-6 -3 -7 -3 4 0 23 4 28 3 32 -6 20 -9 -12 -10 -10 -6 12 3 14 9 33 12 42 4 9
1 16 -6 16 -7 0 -10 7 -6 18 5 15 4 15 -8 -1 -8 -11 -12 -25 -10 -32 4 -10 -1
-12 -15 -8 -11 3 -18 10 -14 16 3 5 1 7 -5 4 -5 -4 -8 -16 -5 -26 3 -10 0 -21
-5 -25 -5 -3 -10 0 -9 7 1 39 -4 67 -12 63 -8 -5 -22 35 -76 214 -7 25 -16 65
-20 90 -7 51 -97 249 -122 267 -10 8 -15 27 -15 55 0 24 1 335 1 691 1 637 1
648 20 637 28 -15 39 -13 46 10 3 11 14 20 24 20 9 0 21 4 27 9 5 5 65 38 134
74 215 111 205 103 277 218 35 57 78 131 95 164 17 33 51 82 75 110 24 27 46
60 49 72 6 21 -23 79 -34 68 -3 -2 -11 0 -18 6 -10 8 -11 16 -4 29 13 24 -2
34 -37 25 -36 -9 -153 -113 -153 -136 0 -10 8 -24 19 -30 17 -11 14 -20 -48
-139 l-66 -127 -75 -44 c-41 -24 -105 -61 -142 -81 l-69 -37 -20 20 c-11 11
-24 17 -29 14 -6 -4 -10 -2 -10 3 0 5 13 12 28 15 16 3 39 14 52 25 31 25 39
96 39 363 1 179 -1 198 -18 221 -23 28 -80 48 -141 48 -30 0 -41 4 -37 13 13
35 -58 75 -194 111 -52 14 -114 28 -139 33 l-45 8 2 86 c2 80 0 88 -22 109
-38 36 -116 52 -270 55 -77 2 -151 2 -165 -1z m304 -39 c55 -11 96 -26 96 -35
0 -5 -26 -17 -57 -27 -81 -25 -333 -24 -415 0 -90 27 -77 41 57 62 79 12 258
12 319 0z m-324 -106 c83 -14 266 -10 344 6 38 8 72 12 75 9 3 -3 7 -63 9
-134 l4 -128 -86 -7 c-79 -6 -205 -3 -383 11 l-73 6 0 130 0 130 28 -7 c15 -4
52 -11 82 -16z m-159 -126 c0 -5 2 -21 4 -36 3 -22 -1 -30 -21 -37 -16 -7 -24
-17 -24 -34 0 -45 33 -49 382 -50 305 -1 320 0 334 18 20 28 18 36 -16 49 -25
10 -30 17 -30 45 0 31 2 34 23 28 12 -4 47 -11 77 -16 104 -16 250 -69 250
-90 0 -14 -90 -37 -195 -51 -49 -7 -202 -13 -340 -13 -335 0 -568 24 -656 70
-25 13 -28 18 -18 30 15 18 84 51 159 75 63 21 70 22 71 12z m-266 -121 c-1
-1 -17 1 -36 5 l-34 7 30 12 c26 10 31 10 36 -4 4 -10 6 -18 4 -20z m-113 -47
c-5 -45 -19 -45 -18 0 1 19 6 35 11 35 7 0 9 -15 7 -35z m101 14 c102 -21 92
100 95 -1145 2 -602 0 -1094 -3 -1094 -4 0 -41 31 -83 70 l-77 70 0 160 c0
127 2 157 12 144 15 -21 93 -36 111 -21 7 5 12 22 10 35 -4 33 -28 41 -29 10
l0 -23 -9 23 c-11 27 -30 29 -37 2 -3 -11 -9 -17 -15 -14 -5 3 -6 14 -3 25 8
25 -20 26 -34 2 -7 -12 -9 273 -8 874 1 491 5 893 8 893 3 0 31 -5 62 -11z
m1277 -39 c-7 -12 -11 -412 -13 -1102 l-2 -1082 -85 -34 c-144 -56 -228 -72
-410 -79 -117 -4 -216 -1 -340 11 -155 15 -283 35 -295 48 -2 2 -6 511 -7
1131 -3 998 -1 1126 12 1122 200 -58 890 -59 1080 -2 55 17 74 12 60 -13z
m125 6 c18 -8 39 -24 46 -37 16 -30 8 -474 -9 -506 -7 -12 -28 -27 -48 -33
-32 -11 -38 -10 -60 11 l-24 22 0 247 c0 317 5 333 95 296z m-1505 -71 c0 -14
-4 -25 -10 -25 -5 0 -10 11 -10 25 0 14 5 25 10 25 6 0 10 -11 10 -25z m0
-295 c0 -217 -2 -240 -17 -240 -14 0 -15 14 -10 137 4 75 7 183 7 240 0 62 4
103 10 103 6 0 10 -87 10 -240z m2076 205 c-7 -26 3 -32 21 -14 7 7 9 2 6 -18
l-5 -28 21 25 c11 14 21 19 21 13 0 -20 -70 -93 -89 -93 -23 0 -61 28 -61 45
0 16 69 95 83 95 5 0 6 -11 3 -25z m-46 -151 c0 -14 -76 -150 -117 -209 -39
-57 -62 -78 -128 -118 -81 -49 -177 -101 -227 -124 -28 -12 -28 -11 -28 22 0
33 3 35 113 91 61 31 130 69 153 85 44 30 103 113 155 221 32 65 33 66 56 51
13 -8 23 -17 23 -19z m-587 -420 c4 -110 4 -111 -17 -101 -20 9 -21 17 -18
106 2 53 5 102 8 110 11 34 22 -12 27 -115z m-1445 -33 c-3 -112 -4 -116 -26
-119 l-22 -3 6 113 c7 133 8 140 29 132 13 -5 15 -25 13 -123z m1496 28 c7
-67 4 -90 -10 -76 -4 3 -9 38 -12 77 -6 93 13 93 22 -1z m-1639 -69 c-17 -18
-34 -56 -50 -117 -21 -79 -139 -382 -165 -423 -8 -13 -11 -13 -26 2 -16 16
-16 20 9 75 39 87 113 312 121 366 11 71 44 137 90 180 l41 39 3 -47 c3 -40
-1 -52 -23 -75z m66 35 l-9 -40 -1 56 c-1 31 2 59 7 63 11 12 14 -35 3 -79z
m79 -626 c0 -306 -3 -469 -10 -469 -7 0 -10 165 -10 476 0 314 3 473 10 469 6
-4 10 -173 10 -476z m-558 139 c26 -26 7 -39 -20 -15 -10 9 -29 20 -42 26 -24
9 -24 10 8 10 20 1 40 -7 54 -21z m-37 -28 c4 -6 -11 -10 -39 -10 -24 0 -52
-3 -60 -6 -12 -5 -15 -2 -10 10 4 12 19 16 54 16 27 0 52 -4 55 -10z m105 -39
c0 -17 -12 -19 -155 -25 -167 -7 -160 9 10 22 61 5 118 10 128 11 9 0 17 -3
17 -8z m-355 -31 c4 -6 -6 -10 -22 -10 -22 0 -25 2 -13 10 19 12 27 12 35 0z
m403 -31 c1 -13 7 -56 13 -95 8 -47 8 -77 2 -89 -7 -13 -13 7 -22 77 -6 51
-14 104 -17 116 -3 17 -1 23 8 20 7 -3 14 -15 16 -29z m-526 -6 c-3 -16 -7
-22 -10 -15 -4 13 4 42 11 42 2 0 2 -12 -1 -27z m472 -5 c3 -13 8 -43 10 -68
16 -142 17 -168 7 -174 -21 -13 -181 -29 -193 -19 -23 17 -137 5 -165 -17 -15
-12 -41 -20 -63 -20 -31 0 -39 4 -44 23 -10 42 -6 256 6 263 6 4 42 9 79 12
59 4 69 2 69 -12 0 -13 10 -16 50 -16 43 0 50 3 50 19 0 21 21 25 137 29 47 2
53 0 57 -20z m-214 2 c0 -5 -15 -10 -32 -9 -31 1 -32 1 -8 9 35 11 40 11 40 0z
m-250 -320 c8 -5 41 -10 72 -10 37 0 60 -5 65 -14 13 -22 50 -36 97 -36 41 0
64 9 194 79 9 6 29 12 44 15 18 4 41 25 69 64 l41 57 -6 -40 c-21 -121 -83
-223 -182 -296 -73 -54 -112 -69 -177 -69 -101 0 -200 78 -244 192 -19 50 -25
263 -8 313 8 24 11 2 15 -108 4 -108 8 -140 20 -147z m182 15 c15 -33 26 -32
30 3 l4 27 12 -27 c15 -36 45 -38 36 -3 -3 14 -2 25 4 25 5 0 13 -11 16 -25 4
-17 14 -25 29 -26 19 -1 19 -2 -8 -14 -36 -17 -99 -19 -125 -5 -24 13 -43 47
-35 60 11 17 25 11 37 -15z m778 -210 c0 -14 -4 -25 -10 -25 -5 0 -10 11 -10
25 0 14 5 25 10 25 6 0 10 -11 10 -25z m0 -111 c0 -34 -4 -53 -10 -49 -5 3
-10 28 -10 56 0 27 5 49 10 49 6 0 10 -25 10 -56z m30 -194 c-19 -12 -12 -18
29 -25 19 -3 41 -10 50 -16 18 -11 20 -11 -75 12 -41 10 -49 15 -40 25 6 7 20
13 31 13 16 1 17 -1 5 -9z m-20 -40 c0 -5 6 -10 14 -10 8 0 18 -5 21 -11 5 -7
-5 -8 -32 -3 -46 8 -52 12 -33 24 20 13 30 12 30 0z m-58 -7 c-6 -2 -10 -9 -7
-14 4 -5 -1 -6 -9 -3 -20 8 -11 24 12 23 11 0 12 -2 4 -6z m75 -43 c2 0 3 -6
3 -14 0 -9 -7 -12 -20 -9 -11 3 -20 9 -20 14 0 4 -15 6 -32 5 -18 -2 -25 -1
-15 1 9 2 17 8 17 13 0 5 15 4 32 -1 18 -5 34 -9 35 -9z m-127 0 c0 -5 -8 -10
-17 -10 -15 0 -16 2 -3 10 19 12 20 12 20 0z m290 -31 c88 10 85 11 86 -49 1
-63 16 -97 48 -110 19 -7 24 -18 29 -71 14 -127 8 -214 -19 -299 -36 -116 -60
-168 -95 -208 -24 -28 -30 -42 -27 -69 5 -44 -14 -49 -131 -34 -48 6 -118 11
-155 11 -39 0 -78 6 -94 14 -33 18 -131 116 -115 116 7 0 15 -4 18 -10 7 -12
25 -13 25 -2 0 5 -11 15 -25 22 -31 17 -33 33 -2 25 21 -6 21 -6 -3 16 -16 15
-19 20 -7 16 18 -7 24 8 7 18 -6 4 -8 10 -5 15 3 5 -3 14 -12 20 -17 11 -17
11 0 6 17 -5 24 8 9 18 -18 11 34 174 74 232 80 116 184 228 225 242 25 9 49
28 66 52 24 33 32 38 53 32 14 -3 36 -5 50 -3z m1130 -15 c50 -22 59 -30 69
-65 7 -22 24 -54 40 -72 15 -17 35 -54 45 -82 10 -27 29 -67 42 -88 34 -52 42
-121 18 -148 -11 -13 -14 -23 -8 -27 11 -8 12 -61 2 -77 -10 -17 3 -66 16 -58
6 4 5 -1 -2 -10 -8 -9 -11 -21 -8 -26 4 -5 2 -12 -4 -16 -15 -9 -12 -25 6 -25
11 0 14 -6 9 -20 -4 -12 -2 -20 5 -20 7 0 9 -8 5 -19 -4 -13 0 -23 11 -29 21
-12 11 -18 -58 -38 -88 -25 -134 -27 -214 -9 -42 9 -104 15 -139 13 -35 -1
-66 0 -69 3 -7 6 7 55 31 107 8 18 16 40 18 50 2 9 8 32 14 50 5 17 8 32 5 32
-3 0 0 9 6 20 20 38 11 268 -14 339 -11 33 -10 43 7 82 12 28 17 61 15 92 -3
42 -1 48 22 56 41 15 70 12 130 -15z m-1453 10 c-3 -3 -12 -4 -19 -1 -8 3 -5
6 6 6 11 1 17 -2 13 -5z m106 -9 c1 -5 -8 -11 -20 -13 -13 -2 -23 2 -23 8 0 6
-5 8 -12 4 -7 -4 -8 -3 -4 5 9 14 56 11 59 -4z m481 -15 c6 -6 10 -31 10 -57
l1 -48 -48 -3 c-65 -4 -77 8 -77 76 l0 55 53 -7 c28 -4 56 -11 61 -16z m650
-6 c3 -9 6 -29 6 -45 0 -24 -6 -31 -37 -44 -53 -22 -70 -13 -75 40 -3 45 -3
45 32 51 19 3 40 7 45 9 19 6 23 5 29 -11z m-1259 -15 c-8 -12 -35 -12 -35 0
0 11 22 20 33 14 4 -2 5 -9 2 -14z m145 11 c0 -5 -4 -10 -10 -10 -5 0 -10 5
-10 10 0 6 5 10 10 10 6 0 10 -4 10 -10z m-67 -17 c-2 -7 2 -13 8 -13 5 0 7
-5 4 -10 -4 -6 -12 -4 -21 5 -9 8 -24 15 -35 15 -12 0 -17 4 -14 11 9 14 61 7
58 -8z m1027 -36 c0 -39 5 -53 29 -78 21 -21 34 -49 41 -87 7 -32 18 -82 26
-112 19 -75 18 -108 -10 -192 -25 -73 -90 -240 -105 -268 -12 -22 -45 -28
-152 -29 -62 -1 -112 4 -138 14 -59 20 -216 31 -235 16 -12 -10 -17 -8 -26 9
-9 18 -5 31 25 85 20 36 32 65 28 65 -4 0 -3 4 2 8 15 11 58 120 51 131 -3 5
1 14 9 21 8 7 15 18 15 24 0 8 -2 8 -8 0 -4 -7 -7 61 -7 150 0 158 0 162 28
209 28 47 42 62 30 31 -10 -27 20 -11 41 22 l20 29 168 0 168 0 0 -48z m-390
39 c0 -3 -4 -8 -10 -11 -5 -3 -10 -1 -10 4 0 6 5 11 10 11 6 0 10 -2 10 -4z
m-690 -38 c0 -4 -7 -8 -15 -8 -8 0 -15 4 -15 8 0 5 7 9 15 9 8 0 15 -4 15 -9z
m-25 -38 c3 -5 2 -10 -4 -10 -5 0 -13 5 -16 10 -3 6 -2 10 4 10 5 0 13 -4 16
-10z m599 -82 c13 -97 18 -264 8 -290 -9 -23 -15 -26 -38 -19 l-27 7 -1 172
-1 172 26 0 c24 0 27 -5 33 -42z m651 5 c3 -21 12 -67 20 -103 23 -110 26
-201 7 -242 -15 -33 -19 -36 -35 -24 -15 12 -16 16 -3 48 13 29 13 49 1 147
-8 63 -19 129 -26 148 -12 38 -7 63 15 63 10 0 17 -14 21 -37z m-1262 10 c-7
-2 -19 -2 -25 0 -7 3 -2 5 12 5 14 0 19 -2 13 -5z m-13 -32 c0 -4 -11 -6 -25
-3 -14 2 -25 6 -25 8 0 2 11 4 25 4 14 0 25 -4 25 -9z m-100 -95 c0 -3 -4 -8
-10 -11 -5 -3 -10 -1 -10 4 0 6 5 11 10 11 6 0 10 -2 10 -4z m1980 -230 c0 -3
-4 -8 -10 -11 -5 -3 -10 -1 -10 4 0 6 5 11 10 11 6 0 10 -2 10 -4z m-1312 -35
c27 -24 27 -25 -2 -83 -13 -25 -28 -60 -34 -77 -12 -33 -32 -40 -51 -17 -10
11 -5 34 21 105 18 50 35 91 38 91 3 -1 15 -9 28 -19z m1322 -34 c0 -18 -2
-19 -10 -7 -8 12 -10 10 -10 -9 0 -13 -3 -22 -6 -18 -3 3 -3 19 1 36 7 34 25
33 25 -2z m-632 -20 c8 -9 4 -36 -17 -97 -27 -81 -29 -85 -59 -88 -18 -2 -32
-1 -32 2 0 7 33 89 60 149 22 49 31 55 48 34z m-1283 -170 c16 -15 24 -27 17
-27 -16 0 -92 77 -92 93 0 7 10 1 23 -13 12 -14 35 -37 52 -53z m-60 13 c10
-11 16 -20 13 -20 -3 0 -13 9 -23 20 -10 11 -16 20 -13 20 3 0 13 -9 23 -20z
m1895 16 c0 -2 -8 -10 -17 -17 -16 -13 -17 -12 -4 4 13 16 21 21 21 13z"/>
<path d="M1457 3783 c-2 -5 -7 -25 -11 -45 -6 -34 -4 -38 17 -43 37 -10 92 0
94 16 1 8 -16 29 -38 47 -42 33 -55 38 -62 25z"/>
<path d="M1452 3664 c-27 -19 -28 -28 -2 -54 20 -20 63 -26 94 -14 17 6 21 41
8 60 -13 20 -76 25 -100 8z m63 -34 c8 -13 -15 -13 -35 0 -12 8 -11 10 7 10
12 0 25 -4 28 -10z"/>
<path d="M1453 3563 c-18 -7 -16 -48 3 -67 22 -22 77 -20 98 3 17 19 17 21 -8
45 -24 25 -62 32 -93 19z m61 -38 c16 -12 17 -15 4 -15 -24 0 -48 11 -48 21 0
13 23 10 44 -6z"/>
<path d="M1436 1965 c-11 -30 -6 -55 14 -75 24 -24 34 -25 54 -4 12 11 13 20
6 34 -14 25 -13 28 8 26 9 0 17 6 17 14 0 23 -90 27 -99 5z"/>
<path d="M1467 1843 c-13 -12 -7 -35 7 -30 7 3 19 0 25 -6 8 -8 16 -7 29 6 15
16 15 19 2 27 -17 11 -54 13 -63 3z"/>
<path d="M1465 1782 c-1 -2 -1 -12 2 -22 4 -16 11 -18 32 -13 33 7 33 7 26 25
-5 13 -49 20 -60 10z"/>
<path d="M1460 1720 c0 -5 5 -10 11 -10 7 0 17 -8 24 -17 11 -15 15 -15 30 -3
16 13 16 15 -1 27 -21 15 -64 17 -64 3z"/>
<path d="M1900 3728 c-47 -32 -68 -72 -85 -163 -38 -195 -5 -305 89 -305 58 1
81 24 113 110 25 67 28 88 28 197 0 108 -2 125 -21 150 -28 38 -77 42 -124 11z
m83 -79 c8 -31 5 -137 -6 -185 -9 -35 -48 -111 -66 -128 -17 -16 -19 -15 -31
14 -7 17 -12 59 -12 92 2 168 86 318 115 207z"/>
<path d="M2182 3669 c-23 -23 -38 -97 -47 -219 -7 -101 8 -164 46 -192 25 -19
28 -19 58 -4 39 21 56 48 70 111 22 104 23 142 6 202 -31 108 -88 152 -133
102z m70 -91 c20 -37 17 -196 -5 -235 -33 -62 -47 -35 -47 97 0 87 14 160 30
160 5 0 15 -10 22 -22z"/>
<path d="M2492 3242 c-30 -5 -38 -24 -47 -108 l-7 -71 -46 -9 c-50 -10 -59
-24 -48 -70 5 -20 12 -24 46 -24 36 0 40 -3 40 -25 0 -26 32 -50 54 -42 7 3
16 19 19 36 l7 31 78 0 c89 0 102 8 102 61 0 27 -9 48 -35 81 -111 137 -122
147 -163 140z m85 -195 c-12 -4 -32 -5 -44 -2 -20 5 -23 11 -23 58 l1 52 44
-50 c42 -48 43 -50 22 -58z"/>
<path d="M2130 2853 c-44 -24 -87 -26 -131 -8 -18 7 -49 -18 -49 -40 0 -24 31
-45 68 -47 62 -2 85 2 140 27 50 23 53 26 50 57 -4 41 -19 43 -78 11z"/>
<path d="M2435 2841 c-93 -23 -120 -80 -70 -153 32 -47 77 -62 172 -56 82 6
118 24 142 73 12 25 12 35 0 69 -12 36 -20 43 -64 58 -52 18 -128 21 -180 9z
m149 -107 c12 -7 17 -18 13 -28 -12 -30 -138 -16 -176 20 -14 13 -9 14 79 28
21 3 61 -7 84 -20z"/>
<path d="M2421 2554 c-19 -8 -40 -22 -47 -32 -16 -20 -18 -76 -4 -102 17 -31
92 -69 151 -76 66 -8 100 7 148 61 50 58 36 121 -35 151 -44 18 -169 17 -213
-2z m138 -65 c94 -20 92 -64 -2 -63 -60 1 -120 18 -137 39 -9 11 -5 16 22 24
45 13 59 13 117 0z"/>
<path d="M1664 2386 c-12 -31 4 -49 37 -42 l30 6 -36 -34 c-31 -30 -35 -38
-25 -55 14 -27 19 -27 60 9 40 33 52 36 70 15 7 -8 19 -15 27 -15 24 0 26 30
3 55 l-22 23 24 4 c15 2 23 10 23 23 0 18 -8 20 -93 23 -76 3 -93 1 -98 -12z"/>
<path d="M1705 2228 c-48 -26 -50 -62 -6 -95 41 -30 139 -18 163 20 15 24 8
55 -17 71 -28 18 -110 21 -140 4z m114 -37 c24 -15 1 -31 -44 -31 -45 0 -68
16 -44 31 8 5 28 9 44 9 17 0 36 -4 44 -9z"/>
<path d="M1677 2083 c-16 -15 -5 -43 30 -73 32 -28 42 -32 79 -27 60 6 94 30
94 66 0 17 -6 31 -16 35 -21 8 -179 8 -187 -1z m158 -53 c-12 -19 -73 -23 -97
-6 -22 15 -20 16 40 16 38 0 61 -4 57 -10z"/>
<path d="M1660 1951 c0 -6 9 -20 20 -31 24 -24 25 -29 3 -46 -12 -9 -15 -16
-8 -23 10 -10 23 -8 168 30 29 8 37 15 37 33 0 27 -12 30 -142 42 -55 4 -78 3
-78 -5z m97 -57 c-3 -3 -12 -4 -19 -1 -8 3 -5 6 6 6 11 1 17 -2 13 -5z"/>
<path d="M1672 1808 c2 -19 11 -24 43 -28 l40 -5 -37 -23 c-40 -25 -47 -42
-24 -61 10 -8 22 -5 50 14 45 30 52 31 66 5 11 -21 44 -27 55 -10 3 5 -6 26
-21 45 l-26 35 30 0 c38 0 48 13 26 34 -12 12 -37 16 -110 16 -93 0 -95 -1
-92 -22z"/>
<path d="M2828 3753 c-26 -4 -28 -8 -28 -49 0 -32 4 -44 15 -44 10 0 15 10 15
30 0 19 5 30 14 30 18 0 28 -40 14 -57 -15 -18 -1 -30 20 -17 25 16 29 84 6
101 -10 7 -20 12 -23 12 -3 -1 -18 -4 -33 -6z"/>
<path d="M568 2286 c-18 -14 -22 -43 -12 -83 11 -42 25 -24 18 25 l-6 47 70 3
70 3 7 -30 c3 -17 4 -35 1 -40 -3 -4 -30 -11 -61 -13 -52 -4 -74 -12 -63 -23
7 -8 138 11 148 21 5 5 4 28 -2 57 l-11 47 -71 0 c-43 -1 -78 -6 -88 -14z"/>
<path d="M608 2263 c-19 -5 -25 -23 -7 -23 6 0 17 -7 25 -15 8 -8 21 -12 29
-9 17 7 20 24 5 24 -5 0 -10 7 -10 15 0 15 -9 17 -42 8z"/>
<path d="M3518 3973 c7 -3 16 -2 19 1 4 3 -2 6 -13 5 -11 0 -14 -3 -6 -6z"/>
<path d="M3490 3951 c0 -5 9 -7 20 -4 11 3 20 7 20 9 0 2 -9 4 -20 4 -11 0
-20 -4 -20 -9z"/>
<path d="M3509 3918 c-7 -21 -3 -48 7 -48 7 0 14 -10 16 -22 5 -34 28 -34 25
0 -1 17 -7 28 -13 25 -6 -2 -14 3 -18 13 -5 13 -2 15 16 11 22 -6 22 -5 4 8
-18 14 -35 19 -37 13z"/>
<path d="M3516 3806 c3 -9 13 -16 22 -16 8 0 13 1 11 3 -2 1 -12 9 -22 16 -15
12 -17 12 -11 -3z"/>
</g>
</svg>
